<svg width="35" height="24" viewBox="0 0 35 24" fill="none" xmlns="http://www.w3.org/2000/svg">
<path d="M17.7389 6.74208H13.5232C13.4462 6.22926 13.289 5.77376 13.0515 5.37557C12.8141 4.97134 12.5093 4.62745 12.1372 4.34389C11.765 4.06033 11.3351 3.84314 10.8474 3.69231C10.3662 3.54148 9.8432 3.46606 9.27853 3.46606C8.25828 3.46606 7.36957 3.70437 6.6124 4.181C5.85523 4.65158 5.2681 5.33937 4.85102 6.24434C4.43393 7.14329 4.22539 8.23529 4.22539 9.52036C4.22539 10.8416 4.43393 11.9517 4.85102 12.8507C5.27452 13.7496 5.86485 14.4284 6.62202 14.8869C7.37919 15.3454 8.25507 15.5747 9.24966 15.5747C9.80791 15.5747 10.3245 15.5053 10.7993 15.3665C11.2805 15.2278 11.7073 15.0256 12.0794 14.7602C12.4516 14.4887 12.7596 14.1599 13.0034 13.7738C13.2537 13.3876 13.4269 12.9472 13.5232 12.4525L17.7389 12.4706C17.6299 13.3213 17.3571 14.1418 16.9208 14.9321C16.4909 15.7164 15.9102 16.4193 15.1787 17.0407C14.4536 17.6561 13.5873 18.1448 12.5799 18.5068C11.5789 18.8627 10.4464 19.0407 9.18228 19.0407C7.42411 19.0407 5.85202 18.6667 4.46602 17.9186C3.08643 17.1704 1.99559 16.0875 1.1935 14.6697C0.397835 13.2519 0 11.5354 0 9.52036C0 7.49925 0.404252 5.77979 1.21275 4.36199C2.02126 2.94419 3.11851 1.86425 4.50452 1.12217C5.89052 0.374058 7.44978 0 9.18228 0C10.3245 0 11.3832 0.15083 12.3585 0.452489C13.3403 0.754148 14.2098 1.19457 14.9669 1.77376C15.7241 2.34691 16.3401 3.04977 16.8149 3.88235C17.2962 4.71493 17.6042 5.66818 17.7389 6.74208Z" fill="black"/>
<path d="M21.6016 18.7879V0.253906H34.8841V3.48468H25.7692V7.90097H34.2007V11.1317H25.7692V15.5571H34.9226V18.7879H21.6016Z" fill="#648ac5"/>
</svg>
